<svg height="480pt" viewBox="-40 0 480 480" width="480pt" xmlns="http://www.w3.org/2000/svg"><path d="m16 16h48v24h-48zm0 0"/><path d="m368 304.800781v-216.800781c0-48.601562-39.398438-88-88-88s-88 39.398438-88 88v304c0 39.765625-32.234375 72-72 72s-72-32.234375-72-72v-216.800781c18.613281-3.828125 31.976562-20.199219 32-39.199219v-80h-80v80c.0234375 19 13.386719 35.371094 32 39.199219v216.800781c0 48.601562 39.398438 88 88 88s88-39.398438 88-88v-304c0-39.765625 32.234375-72 72-72s72 32.234375 72 72v216.800781c-18.613281 3.828125-31.976562 20.199219-32 39.199219v80h80v-80c-.023438-19-13.386719-35.371094-32-39.199219zm0 0"/><path d="m336 440h48v24h-48zm0 0"/></svg>