<?xml version="1.0" encoding="utf-8"?>
<!-- Generator: Adobe Illustrator 19.0.0, SVG Export Plug-In . SVG Version: 6.00 Build 0)  -->
<svg version="1.1" id="Layer_1" xmlns="http://www.w3.org/2000/svg" xmlns:xlink="http://www.w3.org/1999/xlink" x="0px" y="0px"
	 viewBox="0 0 400 400" style="enable-background:new 0 0 400 400;" xml:space="preserve">
<path id="XMLID_8_" d="M352.3,91.8c-31.3-33.2-78.6-39-115.3-14.7c-45.2,29.8-59.2,92.4-35.3,140.6c0.3,0.7,0.7,1.5,1.3,1.8
	c3.1,1.9,1.5,4.9,1.4,7.3c0,0.8-2.4,1.9-3.8,2.3c-11.6,3.3-20.4,10.1-27,20.1c-5.8,8.8-7.2,18.9-9.2,28.9c-1.6,8.4-3.7,16.8-6.3,25
	c-1.4,4.5-4.9,7.8-10.7,9.4c0-2.4,0-4.2,0-6c0-42.3,0.1-134.5-0.1-176.8c0-4.1-0.8-8.6-2.6-12.3c-4.1-8.4-11.8-11-20.6-11
	c-27.7,0-55.3,0-83,0c-14.4,0-22.8,8.4-22.8,23c0,49.1,0,148.2,0,197.4c0,14.4,8.3,22.5,22.7,22.5c26.6,0,53.2,0,79.8,0
	c19.4,0,25.2-5.5,26.7-24.8c0.1-1.2,1.3-2.9,2.3-3.2c9.3-2.7,15-9.2,17.8-18c2.6-8.3,4.2-17,5.8-25.6c1.6-8.4,2.8-16.8,7.8-24.1
	c5.6-8.2,12.9-13.9,23.5-16.4c0,2.8,0,5,0,7.3c0.3,11.8,9.2,21.4,20.1,21.6c11.5,0.2,21.2-8.8,21.5-20.9c0.4-16.1,0.3-32.3,0-48.5
	c-0.2-9.6-6.9-18-15.3-20.3c-9.2-2.5-17.3,0.9-23.2,9.7c-0.3,0.5-0.8,0.9-1.4,1.8c-0.4-1.5-0.8-2.6-1-3.7
	c-4.4-29.1,2-55.4,20.8-78.3c25.4-30.9,69.4-37.9,102.2-15.2c30.2,21,41.6,51.1,38.9,87.2c-0.2,3-0.9,5.9-1.5,9.6
	c-1.9-2.3-3.1-4-4.4-5.4c-7.3-7.8-18.7-8.5-26.9-1.8c-6.1,5-8.4,11.6-8.5,19.2c0,14.3,0,28.7,0,43c0,1.9,0.2,3.9,0.6,5.8
	c1.8,10.7,10.6,18.2,21,18c10-0.2,18.7-8.2,19.9-18.8c0.6-5.2,0.6-10.6,0.5-15.9c-0.1-5.8,0.5-11.1,3.3-16.6
	c7.2-14.1,10.2-29.4,10.4-45.3C382,140,372.9,113.6,352.3,91.8z M81.5,344.3c-4.7,0-8.4-3.8-8.4-8.6c0.1-4.6,3.9-8.4,8.5-8.3
	c4.7,0.1,8.4,3.8,8.4,8.5C90,340.6,86.2,344.3,81.5,344.3z M132.5,322.2c-33.4-0.2-66.8-0.2-100.2,0c-3.5,0-5.2-0.9-5.2-6.7
	c0.1-45.5,0.1-141,0.1-186.5c0-1.9,0.2-3.8,0.4-6.3c1.8,0,3.3,0,4.8,0c33.4,0,66.8,0.1,100.2-0.1c4.1,0,5.5,1.4,5.5,7.5
	c-0.2,44.9-0.2,139.7,0,184.6C138,320.8,136.5,322.2,132.5,322.2z"/>
</svg>
