<?xml version="1.0" encoding="iso-8859-1"?>
<!-- Generator: Adobe Illustrator 16.0.0, SVG Export Plug-In . SVG Version: 6.00 Build 0)  -->
<!DOCTYPE svg PUBLIC "-//W3C//DTD SVG 1.1//EN" "http://www.w3.org/Graphics/SVG/1.1/DTD/svg11.dtd">
<svg version="1.1" id="Capa_1" xmlns="http://www.w3.org/2000/svg" xmlns:xlink="http://www.w3.org/1999/xlink" x="0px" y="0px"
	 width="583.6px" height="583.6px" viewBox="0 0 583.6 583.6" style="enable-background:new 0 0 583.6 583.6;" xml:space="preserve"
	>
<g>
	<g>
		<path d="M215.3,499.393c-16.811,0-30.485,13.674-30.485,30.484s13.674,30.486,30.485,30.486c16.811,0,30.485-13.676,30.485-30.486
			C245.795,513.066,232.121,499.393,215.3,499.393z M215.3,552.473c-12.46,0-22.587-10.135-22.587-22.596
			c0-12.449,10.136-22.586,22.587-22.586c12.45,0,22.596,10.137,22.596,22.586C237.896,542.338,227.76,552.473,215.3,552.473z"/>
		<path d="M225.733,515.504h-20.846c-2.181,0-3.95,1.77-3.95,3.949v20.857c0,2.18,1.769,3.949,3.95,3.949h20.846
			c2.18,0,3.949-1.77,3.949-3.949v-20.857C229.682,517.273,227.913,515.504,225.733,515.504z M221.784,536.361h-12.948v-12.957
			h12.948V536.361z"/>
		<path d="M342.462,486.855V105.857c0-2.18-1.77-3.949-3.949-3.949H92.097c-2.17,0-3.949,1.769-3.949,3.949v380.999
			c0,2.18,1.769,3.949,3.949,3.949h246.417C340.693,490.805,342.462,489.035,342.462,486.855z M334.564,482.906H96.046v-373.1
			h238.518V482.906z"/>
		<path d="M188.764,70.973h53.082c2.18,0,3.949-1.769,3.949-3.949s-1.769-3.949-3.949-3.949h-53.082
			c-2.18,0-3.949,1.769-3.949,3.949C184.815,69.194,186.584,70.973,188.764,70.973z"/>
		<path d="M135.224,583.6h161.597c37.265,0,67.587-30.639,67.587-68.314V68.888c0-37.667-30.963-68.314-69.021-68.314H133.79
			c-37.275,0-67.598,30.648-67.598,68.314v446.397C66.202,552.951,97.165,583.6,135.224,583.6z M81.511,68.888
			c0-29.232,23.457-53.005,52.288-53.005h161.587c29.615,0,53.712,23.772,53.712,53.005v446.397
			c0,29.232-23.456,53.004-52.277,53.004H135.224c-29.615,0-53.712-23.771-53.712-53.004V68.888L81.511,68.888z"/>
		<path d="M494.936,0h-14.793c-20.903,0-37.265,31.107-37.265,70.83v439.616c0,39.723,16.371,70.84,37.265,70.84h14.803
			c12.594,0,22.462-12.613,22.462-28.717V28.716C517.408,12.613,507.54,0,494.936,0z M502.098,552.559
			c0,8.178-4.235,13.398-7.152,13.398h-14.803c-9.17,0-21.955-21.125-21.955-55.52V70.83c0-34.396,12.785-55.52,21.955-55.52h14.793
			c2.917,0,7.162,5.221,7.162,13.407V552.559z"/>
		<path d="M477.284,52.412c-6.77,0-12.278,6.885-12.278,15.348c0,8.472,5.509,15.357,12.278,15.357
			c6.771,0,12.288-6.885,12.288-15.357C489.572,59.297,484.054,52.412,477.284,52.412z M477.284,80.497
			c-5.316,0-9.648-5.709-9.648-12.728c0-7.009,4.332-12.718,9.648-12.718c5.326,0,9.658,5.709,9.658,12.718
			S482.61,80.497,477.284,80.497z"/>
		<path d="M480.143,104.184c-2.181,0-3.949,1.769-3.949,3.949v91.255c0,2.18,1.77,3.949,3.949,3.949
			c2.181,0,3.949-1.769,3.949-3.949v-91.255C484.092,105.953,482.324,104.184,480.143,104.184z"/>
	</g>
</g>
<g>
</g>
<g>
</g>
<g>
</g>
<g>
</g>
<g>
</g>
<g>
</g>
<g>
</g>
<g>
</g>
<g>
</g>
<g>
</g>
<g>
</g>
<g>
</g>
<g>
</g>
<g>
</g>
<g>
</g>
</svg>
