<?xml version="1.0" encoding="iso-8859-1"?>
<!-- Generator: Adobe Illustrator 19.0.0, SVG Export Plug-In . SVG Version: 6.00 Build 0)  -->
<svg version="1.1" id="Layer_1" xmlns="http://www.w3.org/2000/svg" xmlns:xlink="http://www.w3.org/1999/xlink" x="0px" y="0px"
	 viewBox="0 0 512 512" style="enable-background:new 0 0 512 512;" xml:space="preserve">
<g>
	<g>
		<path d="M373.21,0H138.79c-23.665,0-42.917,19.252-42.917,42.916v426.168c0,23.664,19.252,42.916,42.917,42.916h234.422
			c23.664,0,42.916-19.252,42.916-42.916V42.916C416.128,19.252,396.875,0,373.21,0z M395.729,469.084
			c0,12.417-10.101,22.518-22.519,22.518H138.79c-12.418,0-22.519-10.101-22.519-22.518v-54.996h279.458V469.084z M395.729,393.689
			H116.271V71.394h279.458V393.689z M395.729,50.996H116.271v-8.08c0-12.417,10.101-22.518,22.519-22.518h234.422
			c12.417,0,22.518,10.101,22.518,22.518V50.996z"/>
	</g>
</g>
<g>
	<g>
		<path d="M258.04,422.247h-4.08c-16.872,0-30.598,13.726-30.598,30.598c0,16.872,13.726,30.598,30.598,30.598h4.08
			c16.872,0,30.598-13.726,30.598-30.598C288.637,435.973,274.911,422.247,258.04,422.247z M258.04,463.044h-4.08
			c-5.624,0-10.199-4.575-10.199-10.199c0-5.624,4.575-10.199,10.199-10.199h4.08c5.624,0,10.199,4.575,10.199,10.199
			C268.239,458.469,263.664,463.044,258.04,463.044z"/>
	</g>
</g>
<g>
	<g>
		<path d="M228.234,135.649h-49.748c-5.633,0-10.199,4.567-10.199,10.199v49.748c0,5.632,4.566,10.199,10.199,10.199
			c5.633,0,10.199-4.567,10.199-10.199v-39.548h39.548c5.633,0,10.199-4.567,10.199-10.199
			C238.433,140.217,233.867,135.649,228.234,135.649z"/>
	</g>
</g>
<g>
	<g>
		<path d="M228.234,290.677h-39.548v-39.548c0-5.632-4.566-10.199-10.199-10.199c-5.633,0-10.199,4.567-10.199,10.199v49.748
			c0,5.632,4.566,10.199,10.199,10.199h49.748c5.633,0,10.199-4.567,10.199-10.199C238.433,295.245,233.867,290.677,228.234,290.677
			z"/>
	</g>
</g>
<g>
	<g>
		<path d="M333.514,135.649h-49.748c-5.633,0-10.199,4.567-10.199,10.199c0,5.632,4.566,10.199,10.199,10.199h39.548v39.548
			c0,5.632,4.566,10.199,10.199,10.199c5.633,0,10.199-4.567,10.199-10.199v-49.748
			C343.713,140.217,339.147,135.649,333.514,135.649z"/>
	</g>
</g>
<g>
	<g>
		<path d="M333.514,240.93c-5.633,0-10.199,4.567-10.199,10.199v39.548h-39.548c-5.633,0-10.199,4.567-10.199,10.199
			c0,5.632,4.566,10.199,10.199,10.199h49.748c5.633,0,10.199-4.567,10.199-10.199v-49.748
			C343.713,245.497,339.147,240.93,333.514,240.93z"/>
	</g>
</g>
<g>
	<g>
		<path d="M293.737,365.131h-7.139c-5.633,0-10.199,4.567-10.199,10.199s4.566,10.199,10.199,10.199h7.139
			c5.633,0,10.199-4.567,10.199-10.199S299.37,365.131,293.737,365.131z"/>
	</g>
</g>
<g>
	<g>
		<path d="M375.331,365.131h-42.837c-5.633,0-10.199,4.567-10.199,10.199s4.566,10.199,10.199,10.199h42.837
			c5.633,0,10.199-4.567,10.199-10.199S380.964,365.131,375.331,365.131z"/>
	</g>
</g>
<g>
</g>
<g>
</g>
<g>
</g>
<g>
</g>
<g>
</g>
<g>
</g>
<g>
</g>
<g>
</g>
<g>
</g>
<g>
</g>
<g>
</g>
<g>
</g>
<g>
</g>
<g>
</g>
<g>
</g>
</svg>
