<?xml version="1.0" encoding="utf-8"?>
<!-- Generator: Adobe Illustrator 19.0.0, SVG Export Plug-In . SVG Version: 6.00 Build 0)  -->
<svg version="1.1" id="Layer_1" xmlns="http://www.w3.org/2000/svg" xmlns:xlink="http://www.w3.org/1999/xlink" x="0px" y="0px"
	 viewBox="0 0 400 400" style="enable-background:new 0 0 400 400;" xml:space="preserve">
<path d="M207.6,115.3c0.5-1.2,1.1-2.3,1.6-3.5c4.5-11.1,8.8-22.3,13.4-33.3c6.1-14.5,21.6-20.1,34.6-12.4c2.4,1.4,4.4,3.4,6.8,5.3
	c4-6,9.2-10.7,16.5-11.3c4.5-0.4,9.5-0.1,13.6,1.5c10.7,4.1,15,13.1,14.1,27.9c10-0.7,18.3,2.7,23.7,11.4c5.4,8.6,4,17.5-0.3,26.6
	c8.6-0.3,15.7,2,21,8.2c6.3,7.3,7.8,15.8,4.3,24.6c-16.3,40.9-31.9,82.2-49.6,122.4c-14.8,33.4-42.2,52.4-78.3,58.3
	c-45.7,7.4-91.7-17.5-110.6-61c-11.6-26.8-11.8-54-1.1-81.2c10.2-25.9,20.8-51.6,30.9-77.5c8.8-22.5,35-28.1,51.5-14.2
	C202.6,109.3,204.9,112.3,207.6,115.3z M170.2,206.9c0.6-1.6,1.1-3,1.6-4.3c8.7-21.3,17.3-42.7,26-64c3.2-7.8,1.5-14.7-3.9-20.7
	c-10.5-11.6-28.4-7.7-34.5,7.6c-10.4,25.8-20.7,51.6-31,77.5c-8.3,20.8-9.5,42.1-2.4,63.3c14.7,43.9,56.2,69.5,101.9,62.4
	c31.3-4.9,55-21.9,68.2-50.8c12.4-27.1,22.6-55.1,33.8-82.8c5.2-13,10.5-25.9,15.6-38.9c3-7.6-0.6-14.7-8.2-16.5
	c-5.9-1.5-11.3,1.7-14,8.4c-9,22.5-18,45-27.1,67.4c-0.5,1.3-1.1,2.6-1.8,4c-3.8-1.6-7.3-2.9-10.9-4.4c0.7-1.9,1.3-3.5,2-5
	c12.1-30.1,24.1-60.3,36.2-90.4c3.2-8.1,1-14.7-5.7-17.5c-6.6-2.7-13,0.6-16.3,8.6c-0.2,0.4-0.3,0.7-0.4,1.1c-12,30-24,60-36,90.1
	c-0.6,1.4-1.2,2.8-1.9,4.3c-3.8-1.5-7.2-2.9-10.9-4.4c2.2-5.5,4.2-10.6,6.3-15.8c12.9-32.5,25.8-65.1,38.6-97.6
	c2.9-7.4,0-14-6.6-16.4c-6.4-2.3-12.7,0.9-15.5,8.1c-12,30.4-24,60.9-36.1,91.3c-2.8,7.1-5.7,14.2-8.7,21.6c-3.9-1.6-7.4-3-11-4.5
	c0.7-1.8,1.2-3.1,1.7-4.5c12.2-30.5,24.5-61,36.5-91.6c1.1-2.8,1.4-6.3,0.8-9.2c-1.1-5.2-6.1-8.6-11.1-8.8c-5-0.2-9.3,2.8-11.5,8.3
	c-9,21.9-18,43.8-26.9,65.7c-6.6,16.1-13.1,32.3-19.7,48.4c-0.5,1.2-0.9,2.4-1.3,3.5c24.7,15.1,29,43.6,20.9,60.2
	c-3.5-1.4-7-2.9-10.8-4.4c3.8-10.6,3.3-20.6-1.8-30.4C189,216.1,180.4,210.7,170.2,206.9z"/>
<path d="M147.9,91.1c-1.8-6-3.3-11.8-5.3-17.4c-2.2-6.4-8.1-9.7-14.1-8.1c-6.4,1.6-10.2,8-8.5,14.5c1.4,5.4,3,10.7,4.5,16.1
	c0.1,0.2-0.1,0.5-0.3,1c-3.4,1-6.9,1.9-10.4,2.9c-5.5-7.9-10.4-10.1-16.5-7.7c-6.3,2.5-8.2,7.3-6.7,17.6c-3.6,1-7.2,1.9-10.7,2.9
	c-7.1-13.2,3.2-36.9,27.3-33c0.1-13.5,5.8-23.2,19.5-26.3c11-2.5,19.4,2.3,26.8,14.1c17.6-11.3,35.1-6.8,40,10.8
	c-3.6,1-7.3,2.1-10.8,3.1c-5.4-7.8-9.8-10-15.6-8c-5.7,2-8.4,6.7-7.8,14.1C155.6,88.9,151.9,89.9,147.9,91.1z"/>
<path d="M50.1,208.4c4-1.1,7.5-2,11.5-3.1c2.5,9.5,5,18.7,7.5,27.9c3.5,12.7,6.6,25.5,10.5,38.1c7.1,22.7,21.2,40,41.8,52
	c1.1,0.7,2.3,1.4,3.7,2.3c-1.8,3.4-3.5,6.8-5.3,10.4c-10.7-5.3-19.8-12.3-27.9-20.7c-14.4-14.9-22.6-33-27.5-52.8
	c-4.2-16.8-8.9-33.4-13.3-50.1C50.7,211.3,50.5,210.1,50.1,208.4z"/>
<path d="M89.1,149.3c-2.3-8.6-4.3-16.4-6.5-24.5c3.8-1,7.4-2,11.5-3.2c4.4,16.4,8.7,32.6,13.2,49.1c-4,1.1-7.5,2.1-11.4,3.1
	c-2.5-6.7-6.6-12.3-13.7-13.9c-4.2-1-9.1-0.9-13.2,0.3c-6.9,1.9-11.8,7-12.6,14.1c-0.7,6.3,0.6,12.8,1,19.8c-2.7,0.7-6.2,1.7-10,2.7
	c-4.8-12.4-6.3-24.7,2-36C59.3,147.1,72.8,144,89.1,149.3z"/>
<path d="M135.5,330.2c4.7,1.3,9,2.5,13.8,3.9c-0.7,3.8-1.4,7.5-2.2,11.7c-5.3-1.5-10.4-2.9-15.7-4.4
	C132.7,337.6,134,334.1,135.5,330.2z"/>
<path d="M287.7,267.6c-11.6,31.6-45.2,52.5-76.8,50.1c0-3.6,0-7.3,0-11.5c14.3-0.2,27.6-3.3,39.5-11c11.9-7.8,20.6-18.4,26.3-31.9
	C280.4,264.8,284,266.2,287.7,267.6z"/>
<path d="M139.3,208.3c3.8,1.5,7.2,2.9,11,4.4c-6.4,17.4-6.4,34.7,0.7,52.1c-3.8,1.6-7.3,3.1-11,4.7
	C131.7,249.1,131.4,229,139.3,208.3z"/>
<path d="M188.3,301.4c4.1,1.3,7.8,2.4,11.7,3.6c-0.8,3.8-1.5,7.3-2.3,11.6c-4.7-1.4-9-2.7-13.8-4.1
	C185.4,308.6,186.8,305.2,188.3,301.4z"/>
</svg>
