<?xml version="1.0" encoding="utf-8"?>
<!-- Generator: Adobe Illustrator 19.0.0, SVG Export Plug-In . SVG Version: 6.00 Build 0)  -->
<svg version="1.1" id="Layer_1" xmlns="http://www.w3.org/2000/svg" xmlns:xlink="http://www.w3.org/1999/xlink" x="0px" y="0px"
	 viewBox="0 0 400 400" style="enable-background:new 0 0 400 400;" xml:space="preserve">
<style type="text/css">
	.st0{fill:#010101;}
</style>
<g>
	<path id="XMLID_1_" class="st0" d="M116.6,243.5c2.4,2.4,6.2,2.4,8.6,0l75.3-75.4l75.4,75.4c2.4,2.4,6.2,2.4,8.6,0
		c2.4-2.4,2.4-6.2,0-8.6l-79.5-79.5c-1.2-1.2-2.7-1.8-4.3-1.8c-1.5,0-3.1,0.6-4.3,1.8l-79.5,79.5
		C114.2,237.3,114.2,241.1,116.6,243.5z"/>
</g>
<g id="XMLID_3_">
	<path id="XMLID_4_" class="st0" d="M135.5,181.6c1.8,1.8,4.8,1.8,6.6,0l58.3-58.4l58.4,58.4c1.8,1.8,4.8,1.8,6.6,0s1.8-4.8,0-6.6
		l-61.6-61.6c-0.9-0.9-2.1-1.4-3.3-1.4c-1.1,0-2.4,0.5-3.3,1.4L135.6,175C133.7,176.8,133.7,179.8,135.5,181.6z"/>
</g>
</svg>
